<svg width="636" height="520" viewBox="0 0 636 520" fill="none" xmlns="http://www.w3.org/2000/svg">
<path opacity="0.02" d="M636 0V519.265C545.782 486.624 494.998 419.564 464.498 316.531C440.626 235.925 446.576 200.226 252.592 210.643C113.494 218.112 16.6126 86.8493 0.850098 0H636Z" fill="#021751"/>
<path opacity="0.02" d="M636 0V432.801C560.812 405.596 514.751 350.436 493.039 263.825C473.139 184.445 468.361 153.231 309.821 170.495C196.06 182.907 119.737 72.3867 106.592 0H636Z" fill="#021751"/>
<path opacity="0.02" d="M636 0V346.354C575.824 324.587 535.42 281.016 521.598 211.137C506.092 132.745 490.183 106.273 367.049 130.366C278.644 147.721 222.843 57.9423 212.335 0.0183041H636V0Z" fill="#021751"/>
<path opacity="0.02" d="M636 0V259.907C590.855 243.577 557.114 211.32 550.158 158.431C539.942 80.7714 511.987 59.2787 424.296 90.2179C361.246 112.534 325.986 43.4796 318.096 0H636Z" fill="#021751"/>
<path opacity="0.02" d="M636 0V173.442C605.867 162.531 579.907 141.588 578.717 105.724C576.154 28.6874 533.791 12.2841 481.524 50.0702C443.811 77.3296 429.111 29.0169 423.856 0H636Z" fill="#021751"/>
</svg>
