<svg width="636" height="450" viewBox="0 0 636 450" fill="none" xmlns="http://www.w3.org/2000/svg">
<path opacity="0.02" d="M561.156 277.507C645.786 151.199 526.859 18.4047 354.137 89.2626C181.415 160.12 92.8666 112.146 72.9123 53.9953C59.4065 14.6764 22.5033 3.52934 0.019043 0.428711V449.962H635.153C594.141 412.45 498.991 370.259 561.156 277.507Z" fill="#021751"/>
<path opacity="0.02" d="M493.703 298.241C568.156 187.113 463.534 70.2782 311.565 132.633C159.597 194.969 81.7005 152.759 64.143 101.608C52.2731 67.0254 19.7831 57.2099 0 54.4707V449.981H558.797C522.731 416.958 439.033 379.846 493.703 298.241Z" fill="#021751"/>
<path opacity="0.02" d="M426.269 318.975C490.546 223.027 400.228 122.152 269.013 175.985C137.816 229.799 70.5535 193.371 55.3928 149.202C45.1398 119.337 17.101 110.872 0.019043 108.513V450H482.48C451.322 421.467 379.056 389.415 426.269 318.975Z" fill="#021751"/>
<path opacity="0.02" d="M358.816 339.709C412.916 258.941 336.884 174.045 226.441 219.356C115.998 264.667 59.3874 233.984 46.6235 196.795C37.9874 171.648 14.3808 164.514 0 162.536V449.981H406.125C379.912 425.975 319.079 399.002 358.816 339.709Z" fill="#021751"/>
<path opacity="0.02" d="M291.383 360.425C335.324 294.836 273.578 225.899 183.888 262.688C94.1981 299.478 48.2404 274.577 37.8733 244.37C30.8541 223.959 11.6987 218.157 0.019043 216.56V449.981H329.808C308.503 430.484 259.102 408.589 291.383 360.425Z" fill="#021751"/>
<path opacity="0.02" d="M223.93 381.159C257.694 330.769 210.253 277.773 141.316 306.04C72.3987 334.307 37.0553 315.171 29.104 291.963C23.7208 276.27 8.97852 271.819 0.019043 270.583V449.962H253.452C237.093 435.011 199.125 418.176 223.93 381.159Z" fill="#021751"/>
<path opacity="0.02" d="M156.496 401.893C180.084 366.683 146.928 329.646 98.7635 349.41C50.5992 369.175 25.9083 355.783 20.3538 339.576C16.5874 328.619 6.29638 325.5 0.019043 324.644V450H177.116C165.684 439.519 139.167 427.744 156.496 401.893Z" fill="#021751"/>
</svg>
