<svg width="26" height="26" viewBox="0 0 26 26" fill="none" xmlns="http://www.w3.org/2000/svg">
<path fill-rule="evenodd" clip-rule="evenodd" d="M6.94627 1.3959C7.77857 0.848763 8.8345 1.16426 9.31172 1.95963L11.4447 5.51457C11.9254 6.3158 11.6919 7.35337 10.9142 7.87139L9.41784 8.86818C9.3 8.94668 9.28165 9.09004 9.34899 9.18654C10.0599 10.2054 11.2925 11.8918 12.3411 12.9404C13.3899 13.9892 15.0765 15.2219 16.0953 15.9328C16.1918 16.0001 16.3351 15.9818 16.4136 15.864L17.4112 14.3676C17.9294 13.5903 18.9667 13.3571 19.7677 13.8377L23.3227 15.9707C24.1182 16.448 24.4337 17.5043 23.8862 18.3366C23.514 18.9024 22.9542 19.6774 22.2754 20.3719C21.6097 21.0531 20.7597 21.7297 19.7973 21.9876C18.4454 22.3498 16.8451 21.8889 15.6931 21.4303C14.4976 20.9542 13.5768 20.3932 13.4994 20.3457L13.495 20.3429L13.4838 20.3359L13.4743 20.3297L13.4727 20.3286C13.3664 20.2585 10.3486 18.2641 8.6829 16.5984C7.01723 14.9327 5.02345 11.9157 4.95341 11.8096L4.95184 11.8073L4.94565 11.7978L4.93863 11.7866L4.93591 11.7822C4.88842 11.705 4.32735 10.7841 3.85125 9.58854C3.39251 8.43655 2.93155 6.8361 3.29402 5.48416C3.55206 4.52167 4.22897 3.67176 4.91034 3.00615C5.60509 2.32748 6.38036 1.76792 6.94627 1.3959ZM7.89377 2.62839C7.85079 2.6175 7.80999 2.62319 7.77025 2.64932C7.24699 2.9933 6.55837 3.49317 5.95852 4.07915C5.34529 4.67819 4.89686 5.29816 4.74285 5.8726C4.51709 6.71466 4.79698 7.90896 5.24482 9.03361C5.66142 10.0798 6.15366 10.8981 6.20964 10.9899C6.34218 11.1902 8.22451 14.0187 9.74356 15.5378C11.2626 17.0568 14.091 18.9392 14.2916 19.0719C14.3835 19.1279 15.2018 19.6201 16.248 20.0367C17.3726 20.4845 18.5669 20.7643 19.409 20.5387C19.9835 20.3847 20.6035 19.9365 21.2027 19.3235C21.7888 18.7238 22.2888 18.0354 22.633 17.5122C22.6591 17.4725 22.6648 17.4317 22.6539 17.3887C22.6423 17.3428 22.6102 17.2925 22.551 17.2569L18.996 15.1239C18.8815 15.0553 18.7333 15.0886 18.6593 15.1996L17.6617 16.696C17.1301 17.4935 16.0426 17.725 15.237 17.1629C14.2194 16.4529 12.433 15.1536 11.2805 14.0011C10.128 12.8486 8.82887 11.0625 8.11884 10.0449C7.55657 9.23904 7.7884 8.15127 8.58626 7.61979L10.0827 6.623C10.1938 6.549 10.2271 6.40077 10.1584 6.28631L8.02548 2.73138C7.98995 2.67216 7.93966 2.64001 7.89377 2.62839Z" fill="url(#paint0_linear_41_20)"/>
<defs>
<linearGradient id="paint0_linear_41_20" x1="3.19929e-06" y1="7.91552" x2="19.9698" y2="23.93" gradientUnits="userSpaceOnUse">
<stop stop-color="#9914B3"/>
<stop offset="1" stop-color="#7023BC"/>
</linearGradient>
</defs>
</svg>
